<mxfile host="app.diagrams.net" modified="2021-04-04T08:01:05.715Z" agent="5.0 (Windows NT 10.0; Win64; x64) AppleWebKit/537.36 (KHTML, like Gecko) Chrome/89.0.4389.114 Safari/537.36 Edg/89.0.774.68" etag="H4y3OksrKn_rWVQ1APvq" version="14.5.6" type="github">
  <diagram name="Page-1" id="7e0a89b8-554c-2b80-1dc8-d5c74ca68de4">
    <mxGraphModel dx="523" dy="602" grid="1" gridSize="10" guides="1" tooltips="1" connect="1" arrows="1" fold="1" page="1" pageScale="1" pageWidth="1100" pageHeight="850" background="#ffffff" math="0" shadow="0">
      <root>
        <mxCell id="0" />
        <mxCell id="1" parent="0" />
        <mxCell id="STrl3_DRAEaX8d2Ob24q-1" style="edgeStyle=orthogonalEdgeStyle;rounded=0;orthogonalLoop=1;jettySize=auto;html=1;exitX=0.7;exitY=0;exitDx=0;exitDy=0;exitPerimeter=0;entryX=1;entryY=0.5;entryDx=0;entryDy=0;entryPerimeter=0;endArrow=none;endFill=0;endSize=5;strokeColor=#000000;strokeWidth=1;" parent="1" source="STrl3_DRAEaX8d2Ob24q-2" target="STrl3_DRAEaX8d2Ob24q-17" edge="1">
          <mxGeometry relative="1" as="geometry" />
        </mxCell>
        <mxCell id="STrl3_DRAEaX8d2Ob24q-2" value="" style="verticalLabelPosition=bottom;shadow=0;dashed=0;align=center;html=1;verticalAlign=top;shape=mxgraph.electrical.mosfets1.n-channel_mosfet_1;strokeWidth=1;direction=west;flipH=1;flipV=1;" parent="1" vertex="1">
          <mxGeometry x="280" y="240" width="43" height="47.5" as="geometry" />
        </mxCell>
        <mxCell id="STrl3_DRAEaX8d2Ob24q-3" style="edgeStyle=orthogonalEdgeStyle;rounded=0;orthogonalLoop=1;jettySize=auto;html=1;exitX=0.7;exitY=0;exitDx=0;exitDy=0;exitPerimeter=0;entryX=0.7;entryY=1;entryDx=0;entryDy=0;entryPerimeter=0;endArrow=none;endFill=0;endSize=5;strokeColor=#000000;strokeWidth=1;" parent="1" source="STrl3_DRAEaX8d2Ob24q-5" target="STrl3_DRAEaX8d2Ob24q-2" edge="1">
          <mxGeometry relative="1" as="geometry" />
        </mxCell>
        <mxCell id="STrl3_DRAEaX8d2Ob24q-4" style="edgeStyle=orthogonalEdgeStyle;rounded=0;orthogonalLoop=1;jettySize=auto;html=1;exitX=0.7;exitY=1;exitDx=0;exitDy=0;exitPerimeter=0;entryX=0.7;entryY=1;entryDx=0;entryDy=0;entryPerimeter=0;endArrow=none;endFill=0;endSize=5;strokeColor=#000000;strokeWidth=1;" parent="1" source="STrl3_DRAEaX8d2Ob24q-5" target="STrl3_DRAEaX8d2Ob24q-10" edge="1">
          <mxGeometry relative="1" as="geometry" />
        </mxCell>
        <mxCell id="STrl3_DRAEaX8d2Ob24q-5" value="" style="verticalLabelPosition=bottom;shadow=0;dashed=0;align=center;html=1;verticalAlign=top;shape=mxgraph.electrical.mosfets1.n-channel_mosfet_1;strokeWidth=1;direction=west;flipH=1;flipV=1;" parent="1" vertex="1">
          <mxGeometry x="280" y="310" width="43" height="47.5" as="geometry" />
        </mxCell>
        <mxCell id="STrl3_DRAEaX8d2Ob24q-6" style="edgeStyle=orthogonalEdgeStyle;rounded=0;orthogonalLoop=1;jettySize=auto;html=1;exitX=0.7;exitY=0;exitDx=0;exitDy=0;exitPerimeter=0;entryX=0;entryY=0.5;entryDx=0;entryDy=0;entryPerimeter=0;endArrow=none;endFill=0;endSize=5;strokeColor=#000000;strokeWidth=1;" parent="1" source="STrl3_DRAEaX8d2Ob24q-7" target="STrl3_DRAEaX8d2Ob24q-24" edge="1">
          <mxGeometry relative="1" as="geometry" />
        </mxCell>
        <mxCell id="STrl3_DRAEaX8d2Ob24q-7" value="" style="verticalLabelPosition=bottom;shadow=0;dashed=0;align=center;html=1;verticalAlign=top;shape=mxgraph.electrical.mosfets1.n-channel_mosfet_1;strokeWidth=1;direction=west;flipH=0;flipV=1;" parent="1" vertex="1">
          <mxGeometry x="391" y="240" width="43" height="47.5" as="geometry" />
        </mxCell>
        <mxCell id="STrl3_DRAEaX8d2Ob24q-8" style="edgeStyle=orthogonalEdgeStyle;rounded=0;orthogonalLoop=1;jettySize=auto;html=1;exitX=0.7;exitY=0;exitDx=0;exitDy=0;exitPerimeter=0;entryX=0.7;entryY=1;entryDx=0;entryDy=0;entryPerimeter=0;endArrow=none;endFill=0;endSize=5;strokeColor=#000000;strokeWidth=1;" parent="1" source="STrl3_DRAEaX8d2Ob24q-10" target="STrl3_DRAEaX8d2Ob24q-7" edge="1">
          <mxGeometry relative="1" as="geometry" />
        </mxCell>
        <mxCell id="STrl3_DRAEaX8d2Ob24q-9" style="edgeStyle=orthogonalEdgeStyle;rounded=0;orthogonalLoop=1;jettySize=auto;html=1;exitX=0.7;exitY=1;exitDx=0;exitDy=0;exitPerimeter=0;entryX=1;entryY=0.5;entryDx=0;entryDy=0;entryPerimeter=0;endArrow=none;endFill=0;endSize=5;strokeColor=#000000;strokeWidth=1;" parent="1" source="STrl3_DRAEaX8d2Ob24q-10" target="STrl3_DRAEaX8d2Ob24q-26" edge="1">
          <mxGeometry relative="1" as="geometry" />
        </mxCell>
        <mxCell id="STrl3_DRAEaX8d2Ob24q-10" value="" style="verticalLabelPosition=bottom;shadow=0;dashed=0;align=center;html=1;verticalAlign=top;shape=mxgraph.electrical.mosfets1.n-channel_mosfet_1;strokeWidth=1;direction=west;flipH=0;flipV=1;" parent="1" vertex="1">
          <mxGeometry x="391" y="310" width="43" height="47.5" as="geometry" />
        </mxCell>
        <mxCell id="STrl3_DRAEaX8d2Ob24q-11" style="edgeStyle=orthogonalEdgeStyle;rounded=0;orthogonalLoop=1;jettySize=auto;html=1;exitX=0;exitY=1;exitDx=0;exitDy=0;exitPerimeter=0;entryX=0.7;entryY=0;entryDx=0;entryDy=0;entryPerimeter=0;endArrow=none;endFill=0;endSize=5;strokeColor=#000000;strokeWidth=1;" parent="1" target="STrl3_DRAEaX8d2Ob24q-5" edge="1">
          <mxGeometry relative="1" as="geometry">
            <mxPoint x="331" y="300" as="sourcePoint" />
          </mxGeometry>
        </mxCell>
        <mxCell id="STrl3_DRAEaX8d2Ob24q-12" style="edgeStyle=orthogonalEdgeStyle;rounded=0;orthogonalLoop=1;jettySize=auto;html=1;exitX=1;exitY=1;exitDx=0;exitDy=0;exitPerimeter=0;entryX=0.7;entryY=0;entryDx=0;entryDy=0;entryPerimeter=0;endArrow=none;endFill=0;endSize=5;strokeColor=#000000;strokeWidth=1;" parent="1" target="STrl3_DRAEaX8d2Ob24q-10" edge="1">
          <mxGeometry relative="1" as="geometry">
            <mxPoint x="386" y="300" as="sourcePoint" />
          </mxGeometry>
        </mxCell>
        <mxCell id="STrl3_DRAEaX8d2Ob24q-13" value="" style="pointerEvents=1;verticalLabelPosition=bottom;shadow=0;dashed=0;align=center;html=1;verticalAlign=top;shape=mxgraph.electrical.inductors.inductor_3;strokeWidth=1;direction=east;" parent="1" vertex="1">
          <mxGeometry x="319" y="292" width="78" height="8" as="geometry" />
        </mxCell>
        <mxCell id="STrl3_DRAEaX8d2Ob24q-14" value="" style="ellipse;whiteSpace=wrap;html=1;aspect=fixed;shadow=0;dashed=0;strokeWidth=2;" parent="1" vertex="1">
          <mxGeometry x="309" y="299" width="2" height="2" as="geometry" />
        </mxCell>
        <mxCell id="STrl3_DRAEaX8d2Ob24q-15" value="" style="ellipse;whiteSpace=wrap;html=1;aspect=fixed;shadow=0;dashed=0;strokeWidth=2;" parent="1" vertex="1">
          <mxGeometry x="403" y="299" width="2" height="2" as="geometry" />
        </mxCell>
        <mxCell id="STrl3_DRAEaX8d2Ob24q-16" style="edgeStyle=orthogonalEdgeStyle;rounded=0;orthogonalLoop=1;jettySize=auto;html=1;exitX=0;exitY=0.5;exitDx=0;exitDy=0;exitPerimeter=0;entryX=0.7;entryY=1;entryDx=0;entryDy=0;entryPerimeter=0;endArrow=none;endFill=0;endSize=5;strokeColor=#000000;strokeWidth=1;" parent="1" source="STrl3_DRAEaX8d2Ob24q-17" target="STrl3_DRAEaX8d2Ob24q-5" edge="1">
          <mxGeometry relative="1" as="geometry" />
        </mxCell>
        <mxCell id="STrl3_DRAEaX8d2Ob24q-17" value="" style="verticalLabelPosition=bottom;shadow=0;dashed=0;align=center;fillColor=#000000;html=1;verticalAlign=top;strokeWidth=1;shape=mxgraph.electrical.miscellaneous.monocell_battery;rounded=1;comic=0;labelBackgroundColor=none;fontFamily=Verdana;fontSize=12;flipH=1;direction=north;" parent="1" vertex="1">
          <mxGeometry x="190" y="266" width="40" height="60" as="geometry" />
        </mxCell>
        <mxCell id="STrl3_DRAEaX8d2Ob24q-18" value="&lt;font style=&quot;font-size: 18px&quot;&gt;V&lt;/font&gt;&lt;font style=&quot;font-size: 12px&quot;&gt;IN&lt;/font&gt;" style="text;html=1;align=center;verticalAlign=middle;resizable=0;points=[];autosize=1;" parent="1" vertex="1">
          <mxGeometry x="170" y="301" width="40" height="20" as="geometry" />
        </mxCell>
        <mxCell id="STrl3_DRAEaX8d2Ob24q-19" value="&lt;font face=&quot;Times New Roman&quot;&gt;&lt;i&gt;&lt;b&gt;Q1&lt;/b&gt;&lt;/i&gt;&lt;/font&gt;" style="text;html=1;strokeColor=none;fillColor=none;align=center;verticalAlign=middle;whiteSpace=wrap;rounded=0;" parent="1" vertex="1">
          <mxGeometry x="250" y="253" width="40" height="20" as="geometry" />
        </mxCell>
        <mxCell id="STrl3_DRAEaX8d2Ob24q-20" value="&lt;font face=&quot;Times New Roman&quot;&gt;&lt;i&gt;&lt;b&gt;Q2&lt;br&gt;&lt;/b&gt;&lt;/i&gt;&lt;/font&gt;" style="text;html=1;strokeColor=none;fillColor=none;align=center;verticalAlign=middle;whiteSpace=wrap;rounded=0;" parent="1" vertex="1">
          <mxGeometry x="420" y="253" width="40" height="20" as="geometry" />
        </mxCell>
        <mxCell id="STrl3_DRAEaX8d2Ob24q-21" value="&lt;font face=&quot;Times New Roman&quot;&gt;&lt;i&gt;&lt;b&gt;Q3&lt;/b&gt;&lt;/i&gt;&lt;/font&gt;" style="text;html=1;strokeColor=none;fillColor=none;align=center;verticalAlign=middle;whiteSpace=wrap;rounded=0;" parent="1" vertex="1">
          <mxGeometry x="250" y="321" width="40" height="20" as="geometry" />
        </mxCell>
        <mxCell id="STrl3_DRAEaX8d2Ob24q-22" value="&lt;font face=&quot;Times New Roman&quot;&gt;&lt;i&gt;&lt;b&gt;Q4&lt;/b&gt;&lt;/i&gt;&lt;/font&gt;" style="text;html=1;strokeColor=none;fillColor=none;align=center;verticalAlign=middle;whiteSpace=wrap;rounded=0;" parent="1" vertex="1">
          <mxGeometry x="420" y="323.75" width="40" height="20" as="geometry" />
        </mxCell>
        <mxCell id="STrl3_DRAEaX8d2Ob24q-23" style="edgeStyle=orthogonalEdgeStyle;rounded=0;orthogonalLoop=1;jettySize=auto;html=1;exitX=1;exitY=0.5;exitDx=0;exitDy=0;exitPerimeter=0;endArrow=none;endFill=0;endSize=5;strokeColor=#000000;strokeWidth=1;entryX=0.7;entryY=1;entryDx=0;entryDy=0;entryPerimeter=0;" parent="1" source="STrl3_DRAEaX8d2Ob24q-24" target="STrl3_DRAEaX8d2Ob24q-10" edge="1">
          <mxGeometry relative="1" as="geometry">
            <mxPoint x="430" y="380" as="targetPoint" />
          </mxGeometry>
        </mxCell>
        <mxCell id="STrl3_DRAEaX8d2Ob24q-24" value="" style="pointerEvents=1;verticalLabelPosition=bottom;shadow=0;dashed=0;align=center;html=1;verticalAlign=top;shape=mxgraph.electrical.capacitors.capacitor_1;direction=south;" parent="1" vertex="1">
          <mxGeometry x="445" y="266" width="30" height="60" as="geometry" />
        </mxCell>
        <mxCell id="STrl3_DRAEaX8d2Ob24q-25" style="edgeStyle=orthogonalEdgeStyle;rounded=0;orthogonalLoop=1;jettySize=auto;html=1;exitX=0;exitY=0.5;exitDx=0;exitDy=0;exitPerimeter=0;entryX=0;entryY=0.5;entryDx=0;entryDy=0;entryPerimeter=0;endArrow=none;endFill=0;endSize=5;strokeColor=#000000;strokeWidth=1;" parent="1" source="STrl3_DRAEaX8d2Ob24q-26" target="STrl3_DRAEaX8d2Ob24q-24" edge="1">
          <mxGeometry relative="1" as="geometry">
            <Array as="points">
              <mxPoint x="495" y="220" />
              <mxPoint x="460" y="220" />
            </Array>
          </mxGeometry>
        </mxCell>
        <mxCell id="STrl3_DRAEaX8d2Ob24q-26" value="" style="pointerEvents=1;verticalLabelPosition=bottom;shadow=0;dashed=0;align=center;html=1;verticalAlign=top;shape=mxgraph.electrical.resistors.resistor_2;strokeWidth=1;direction=south;" parent="1" vertex="1">
          <mxGeometry x="490" y="273" width="10" height="46" as="geometry" />
        </mxCell>
        <mxCell id="v6tkJ2GT0aAer87_zzX_-1" value="&lt;font face=&quot;Times New Roman&quot;&gt;&lt;b style=&quot;font-style: italic&quot;&gt;I&lt;/b&gt;&lt;sub&gt;&lt;font style=&quot;font-size: 11px&quot;&gt;L&lt;/font&gt;&lt;/sub&gt;&lt;br&gt;&lt;/font&gt;" style="text;html=1;strokeColor=none;fillColor=none;align=center;verticalAlign=middle;whiteSpace=wrap;rounded=0;" parent="1" vertex="1">
          <mxGeometry x="338" y="310" width="40" height="20" as="geometry" />
        </mxCell>
        <mxCell id="zk9AVnoM1tUe2nTzyNRS-1" value="" style="endArrow=classic;html=1;" edge="1" parent="1">
          <mxGeometry width="50" height="50" relative="1" as="geometry">
            <mxPoint x="321" y="227.88" as="sourcePoint" />
            <mxPoint x="391" y="364.13" as="targetPoint" />
            <Array as="points">
              <mxPoint x="331" y="287.88" />
              <mxPoint x="360" y="288.13" />
              <mxPoint x="380" y="288.13" />
            </Array>
          </mxGeometry>
        </mxCell>
        <mxCell id="zk9AVnoM1tUe2nTzyNRS-3" value="" style="endArrow=classic;html=1;dashed=1;" edge="1" parent="1">
          <mxGeometry width="50" height="50" relative="1" as="geometry">
            <mxPoint x="323" y="360" as="sourcePoint" />
            <mxPoint x="393" y="230" as="targetPoint" />
            <Array as="points">
              <mxPoint x="333" y="303.5" />
              <mxPoint x="383" y="303.5" />
            </Array>
          </mxGeometry>
        </mxCell>
        <mxCell id="zk9AVnoM1tUe2nTzyNRS-6" value="" style="endArrow=classic;html=1;dashed=1;" edge="1" parent="1">
          <mxGeometry width="50" height="50" relative="1" as="geometry">
            <mxPoint x="323" y="367.33" as="sourcePoint" />
            <mxPoint x="343" y="367.33" as="targetPoint" />
          </mxGeometry>
        </mxCell>
        <mxCell id="zk9AVnoM1tUe2nTzyNRS-7" value="" style="endArrow=classic;html=1;" edge="1" parent="1">
          <mxGeometry width="50" height="50" relative="1" as="geometry">
            <mxPoint x="323" y="220" as="sourcePoint" />
            <mxPoint x="343" y="220" as="targetPoint" />
          </mxGeometry>
        </mxCell>
        <mxCell id="zk9AVnoM1tUe2nTzyNRS-8" value="Boost" style="text;html=1;strokeColor=none;fillColor=none;align=center;verticalAlign=middle;whiteSpace=wrap;rounded=0;" vertex="1" parent="1">
          <mxGeometry x="338" y="210" width="40" height="20" as="geometry" />
        </mxCell>
        <mxCell id="zk9AVnoM1tUe2nTzyNRS-9" value="Buck" style="text;html=1;strokeColor=none;fillColor=none;align=center;verticalAlign=middle;whiteSpace=wrap;rounded=0;" vertex="1" parent="1">
          <mxGeometry x="338" y="356" width="40" height="20" as="geometry" />
        </mxCell>
        <mxCell id="zk9AVnoM1tUe2nTzyNRS-10" value="" style="endArrow=blockThin;html=1;endFill=1;strokeWidth=2;" edge="1" parent="1">
          <mxGeometry width="50" height="50" relative="1" as="geometry">
            <mxPoint x="339" y="310.83" as="sourcePoint" />
            <mxPoint x="377" y="310.83" as="targetPoint" />
          </mxGeometry>
        </mxCell>
      </root>
    </mxGraphModel>
  </diagram>
</mxfile>
